<svg width="83.86" height="83.86" viewBox="0 0 83.86 83.86" fill="none" xmlns="http://www.w3.org/2000/svg">
<g filter="url(#filter0_d_432_69)">
<circle cx="71.1642" cy="70.6505" r="41.9308" fill="white"/>
</g>
<path d="M79.04 51.9916C78.5344 48.4485 75.4504 45.7764 71.8666 45.7764C69.5618 45.7764 67.3729 46.8885 66.012 48.7525C65.734 49.1326 65.8172 49.6659 66.1973 49.9439C66.5762 50.2208 67.1107 50.1387 67.3882 49.758C68.4299 48.3327 70.1038 47.4815 71.8664 47.4815C74.6072 47.4815 76.9652 49.524 77.3518 52.2322C77.4128 52.6575 77.7777 52.9645 78.195 52.9645C78.2347 52.9645 78.2757 52.9615 78.3164 52.956C78.7825 52.8893 79.1064 52.4574 79.04 51.9916Z" fill="#65C466"/>
<path d="M91.3529 61.5351L88.7954 57.2725C88.6415 57.0155 88.364 56.8586 88.0643 56.8586H85.6134C85.1429 56.8586 84.761 57.2405 84.761 57.7111C84.761 58.1816 85.1429 58.5635 85.6134 58.5635H87.5818L89.1163 61.121H54.6168L56.1513 58.5635H57.0542C57.5247 58.5635 57.9066 58.1816 57.9066 57.7111C57.9066 57.2405 57.5247 56.8586 57.0542 56.8586H55.6688C55.369 56.8586 55.0916 57.0155 54.9377 57.2725L52.3802 61.5351C52.2221 61.7989 52.2183 62.1268 52.3694 62.3941C52.5205 62.6613 52.8038 62.8266 53.1112 62.8266H90.6219C90.9293 62.8266 91.2123 62.6613 91.3637 62.3941C91.515 62.1268 91.511 61.7984 91.3529 61.5351Z" fill="#65C466"/>
<path d="M87.1035 53.6747C86.9841 53.4821 86.7935 53.3455 86.5732 53.2941L74.9516 50.5759C74.7316 50.5242 74.4998 50.5627 74.3075 50.6816C74.1157 50.801 73.9788 50.9915 73.9274 51.2118L73.051 54.9582C72.9436 55.4165 73.2283 55.8751 73.6869 55.982C74.1452 56.0894 74.6042 55.8047 74.7111 55.3461L75.3935 52.4302L85.3546 54.7602L83.7894 61.4525C83.682 61.9108 83.9667 62.3693 84.4253 62.4762C84.491 62.4915 84.5562 62.4987 84.6206 62.4987C85.0077 62.4987 85.3581 62.2335 85.4493 61.8406L87.2089 54.3183C87.2608 54.0983 87.2228 53.8665 87.1035 53.6747Z" fill="#65C466"/>
<path d="M72.3176 55.6898L71.5409 49.1198C71.5144 48.8953 71.3998 48.6902 71.2219 48.5504C71.0441 48.4105 70.8196 48.3466 70.594 48.373L56.3353 50.0584C55.868 50.1139 55.5338 50.5375 55.589 51.0053L56.884 61.963C56.9354 62.3968 57.3033 62.7157 57.7297 62.7157C57.7629 62.7157 57.7971 62.7135 57.8311 62.7098C58.2981 62.6543 58.6323 62.2307 58.5773 61.7629L57.3822 51.6511L69.9479 50.1661L70.6243 55.8893C70.6797 56.3569 71.1013 56.689 71.5711 56.6361C72.0384 56.5811 72.3726 56.1573 72.3176 55.6898Z" fill="#65C466"/>
<path d="M79.0604 61.6499L77.3683 54.6132C77.3154 54.3937 77.1773 54.2036 76.9847 54.0855C76.7921 53.9683 76.5611 53.9316 76.3401 53.9841L62.6065 57.2869C62.1487 57.3968 61.867 57.8573 61.9769 58.3151L62.8226 61.8323C62.9325 62.2906 63.393 62.5725 63.8506 62.4619C64.3084 62.352 64.5901 61.8915 64.4802 61.4336L63.8336 58.7452L75.9095 55.8415L77.4023 62.049C77.4959 62.4399 77.8456 62.7022 78.2305 62.7022C78.2967 62.7022 78.3636 62.6944 78.4308 62.6782C78.8886 62.568 79.1703 62.1077 79.0604 61.6499Z" fill="#65C466"/>
<path d="M91.4749 61.9305C91.4515 61.4775 91.0773 61.1218 90.6233 61.1218H53.1126C52.6585 61.1218 52.2844 61.4772 52.2609 61.9305L50.5558 95.1786C50.5438 95.4118 50.6282 95.6401 50.7891 95.8094C50.9502 95.9785 51.1735 96.0747 51.4072 96.0747H92.3279C92.5614 96.0747 92.7849 95.9788 92.9468 95.8094C93.1074 95.6401 93.1918 95.4121 93.18 95.1786L91.4749 61.9305ZM52.3044 94.3696L53.9221 62.8267H89.8128L91.4305 94.3696H52.3044Z" fill="#65C466"/>
<path d="M78.2607 64.5317C76.8503 64.5317 75.7031 65.6789 75.7031 67.0893C75.7031 68.4997 76.8503 69.6468 78.2607 69.6468C79.6711 69.6468 80.8182 68.4997 80.8182 67.0893C80.8182 65.6789 79.6711 64.5317 78.2607 64.5317ZM78.2607 67.942C77.7904 67.942 77.4082 67.5596 77.4082 67.0895C77.4082 66.6195 77.7906 66.2371 78.2607 66.2371C78.7307 66.2371 79.1131 66.6195 79.1131 67.0895C79.1131 67.5596 78.7307 67.942 78.2607 67.942Z" fill="#65C466"/>
<path d="M65.4745 64.5317C64.0641 64.5317 62.917 65.6789 62.917 67.0893C62.917 68.4997 64.0641 69.6468 65.4745 69.6468C66.8849 69.6468 68.0321 68.4997 68.0321 67.0893C68.0321 65.6789 66.8849 64.5317 65.4745 64.5317ZM65.4745 67.942C65.0045 67.942 64.6221 67.5596 64.6221 67.0895C64.6221 66.6195 65.0045 66.2371 65.4745 66.2371C65.9446 66.2371 66.327 66.6195 66.327 67.0895C66.327 67.5596 65.9446 67.942 65.4745 67.942Z" fill="#65C466"/>
<path d="M78.2612 67.0891H78.1955C77.725 67.0891 77.3431 67.471 77.3431 67.9415C77.3431 68.0579 77.3661 68.1691 77.4088 68.2702V72.6303C77.4088 75.6856 74.9229 78.1717 71.8674 78.1717C68.8118 78.1717 66.326 75.6858 66.326 72.6303V67.9418C66.326 67.4712 65.9441 67.0894 65.4735 67.0894C65.003 67.0894 64.6211 67.4712 64.6211 67.9418V72.6305C64.6211 76.6262 67.8717 79.8768 71.8674 79.8768C75.863 79.8768 79.1136 76.6262 79.1136 72.6305V67.9418C79.1136 67.4712 78.7318 67.0891 78.2612 67.0891Z" fill="#65C466"/>
<defs>
<filter id="filter0_d_432_69" x="0.805759" y="0.292088" width="140.717" height="140.717" filterUnits="userSpaceOnUse" color-interpolation-filters="sRGB">
<feFlood flood-opacity="0" result="BackgroundImageFix"/>
<feColorMatrix in="SourceAlpha" type="matrix" values="0 0 0 0 0 0 0 0 0 0 0 0 0 0 0 0 0 0 127 0" result="hardAlpha"/>
<feOffset/>
<feGaussianBlur stdDeviation="14.2138"/>
<feColorMatrix type="matrix" values="0 0 0 0 0.870833 0 0 0 0 0.870833 0 0 0 0 0.870833 0 0 0 1 0"/>
<feBlend mode="normal" in2="BackgroundImageFix" result="effect1_dropShadow_432_69"/>
<feBlend mode="normal" in="SourceGraphic" in2="effect1_dropShadow_432_69" result="shape"/>
</filter>
</defs>
</svg>
